<mxfile host="app.diagrams.net" modified="2024-01-27T15:08:11.969Z" agent="Mozilla/5.0 (Windows NT 10.0; Win64; x64) AppleWebKit/537.36 (KHTML, like Gecko) Chrome/120.0.0.0 Whale/3.24.223.21 Safari/537.36" version="23.0.2" etag="EYzEI4TjAmrCEhz3p2ll" type="github">
  <diagram name="페이지-1" id="JTPiTUJ4401fEsxCc7Fc">
    <mxGraphModel>
      <root>
        <mxCell id="0" />
        <mxCell id="1" parent="0" />
      </root>
    </mxGraphModel>
  </diagram>
</mxfile>
